# xmcd
#
# Track frame offsets: 
#        150
#        16453
#        35302
#        57141
#        75901
#        93423
#        110771
#        127800
#        145986
#        160771
#        180417
#        196446
#
# Disc length: 2820 seconds
#
# Revision: 0
# Processed by: cddbd v1.5.2PL0 Copyright (c) Steve Scherf et al.
# Submitted via: ExactAudioCopy v0.99pb4
#
DISCID=900b020c
DTITLE=Ridge Runner - Kickin' and Stompin'
DYEAR=2009
DGENRE=Country
TTITLE0=Ride
TTITLE1=Kickin' Up Dirt
TTITLE2=I'm Still Me
TTITLE3=Train Whistle
TTITLE4=One More Whiskey
TTITLE5=Stompin'
TTITLE6=Better Pickup Lines
TTITLE7=Devil's Hands
TTITLE8=Devil's Hands Outro
TTITLE9=Ridge Runner Junkie
TTITLE10=Danced A Dream (2009)
TTITLE11=Live It Up
EXTD=
EXTT0=
EXTT1=
EXTT2=
EXTT3=
EXTT4=
EXTT5=
EXTT6=
EXTT7=
EXTT8=
EXTT9=
EXTT10=
EXTT11=
PLAYORDER=
